PathFileType	4	(X/Y/Z)	C:\Users\italobelli\Desktop\GitHub\PTbot_officialCBL\Personal_Results\ABD22_noisy1.trc
DataRate	CameraRate	NumFrames	NumMarkers	Units	OrigDataRate	OrigDataStartFrame	OrigNumFrames
106.125000	106.125000	34	9	m	106.125000	1	850
Frame#	Time		gu		centelbow		EpL		centpxt8		centijc7		ij		ts		aa		ai
			X1	Y1	Z1	X2	Y2	Z2	X3	Y3	Z3	X4	Y4	Z4	X5	Y5	Z5	X6	Y6	Z6	X7	Y7	Z7	X8	Y8	Z8	X9	Y9	Z9

1	0	-0.094794	-0.015005	0.16048	-0.13937	-0.25521	0.18389	-0.14595	-0.24698	0.21435	-0.046816	-0.15316	-0.008669	-0.046816	0.031938	-0.008669	0	0	0	-0.1305	0.025926	0.040553	-0.12483	0.021028	0.15959	-0.14499	-0.086652	0.041832
2	0.0094229	-0.094752	-0.015041	0.16051	-0.13935	-0.25521	0.18387	-0.14592	-0.24699	0.21433	-0.046816	-0.15316	-0.008669	-0.046816	0.031938	-0.008669	0	0	0	-0.13048	0.025904	0.040577	-0.1248	0.021002	0.15961	-0.14498	-0.086673	0.041854
3	0.018846	-0.09471	-0.015075	0.16054	-0.13933	-0.25521	0.18385	-0.1459	-0.247	0.21432	-0.046816	-0.15316	-0.008669	-0.046816	0.031938	-0.008669	0	0	0	-0.13046	0.025882	0.0406	-0.12478	0.020977	0.15964	-0.14497	-0.086694	0.041875
4	0.028269	-0.094668	-0.015109	0.16057	-0.13931	-0.25522	0.18384	-0.14587	-0.24701	0.21431	-0.046816	-0.15316	-0.008669	-0.046816	0.031938	-0.008669	0	0	0	-0.13043	0.02586	0.040622	-0.12475	0.020952	0.15966	-0.14496	-0.086714	0.041894
5	0.037691	-0.094626	-0.015141	0.1606	-0.13929	-0.25522	0.18382	-0.14585	-0.24701	0.2143	-0.046816	-0.15316	-0.008669	-0.046816	0.031938	-0.008669	0	0	0	-0.13041	0.025838	0.040643	-0.12472	0.020928	0.15968	-0.14495	-0.086735	0.041912
6	0.047114	-0.094585	-0.015172	0.16062	-0.13927	-0.25522	0.18381	-0.14582	-0.24702	0.21429	-0.046816	-0.15316	-0.008669	-0.046816	0.031938	-0.008669	0	0	0	-0.13039	0.025817	0.040662	-0.1247	0.020904	0.1597	-0.14494	-0.086755	0.041928
7	0.056537	-0.094543	-0.015201	0.16065	-0.13925	-0.25522	0.18381	-0.1458	-0.24703	0.21429	-0.046816	-0.15316	-0.008669	-0.046816	0.031938	-0.008669	0	0	0	-0.13037	0.025796	0.04068	-0.12467	0.020881	0.15971	-0.14493	-0.086775	0.041943
8	0.06596	-0.094502	-0.01523	0.16067	-0.13923	-0.25522	0.1838	-0.14577	-0.24703	0.21429	-0.046816	-0.15316	-0.008669	-0.046816	0.031938	-0.008669	0	0	0	-0.13035	0.025775	0.040697	-0.12464	0.020858	0.15973	-0.14492	-0.086794	0.041957
9	0.075383	-0.094461	-0.015257	0.16069	-0.13921	-0.25522	0.1838	-0.14575	-0.24704	0.21429	-0.046816	-0.15316	-0.008669	-0.046816	0.031938	-0.008669	0	0	0	-0.13033	0.025755	0.040713	-0.12462	0.020835	0.15974	-0.14491	-0.086814	0.041969
10	0.084806	-0.09442	-0.015283	0.16072	-0.13919	-0.25523	0.1838	-0.14573	-0.24704	0.21429	-0.046816	-0.15316	-0.008669	-0.046816	0.031938	-0.008669	0	0	0	-0.13031	0.025735	0.040727	-0.12459	0.020813	0.15976	-0.1449	-0.086833	0.04198
11	0.094229	-0.094379	-0.015308	0.16074	-0.13917	-0.25523	0.1838	-0.1457	-0.24705	0.21429	-0.046816	-0.15316	-0.008669	-0.046816	0.031938	-0.008669	0	0	0	-0.13029	0.025715	0.04074	-0.12457	0.020792	0.15977	-0.14489	-0.086852	0.04199
12	0.10365	-0.094339	-0.015332	0.16076	-0.13915	-0.25523	0.18381	-0.14568	-0.24705	0.2143	-0.046816	-0.15316	-0.008669	-0.046816	0.031938	-0.008669	0	0	0	-0.13027	0.025695	0.040753	-0.12455	0.02077	0.15978	-0.14488	-0.086871	0.041998
13	0.11307	-0.0943	-0.015355	0.16077	-0.13913	-0.25523	0.18381	-0.14566	-0.24705	0.21431	-0.046816	-0.15316	-0.008669	-0.046816	0.031938	-0.008669	0	0	0	-0.13025	0.025676	0.040764	-0.12452	0.02075	0.15979	-0.14487	-0.086889	0.042005
14	0.1225	-0.09426	-0.015376	0.16079	-0.13911	-0.25523	0.18382	-0.14563	-0.24705	0.21432	-0.046816	-0.15316	-0.008669	-0.046816	0.031938	-0.008669	0	0	0	-0.13023	0.025657	0.040774	-0.1245	0.020729	0.1598	-0.14486	-0.086908	0.042011
15	0.13192	-0.094222	-0.015397	0.16081	-0.13909	-0.25523	0.18383	-0.14561	-0.24705	0.21433	-0.046816	-0.15316	-0.008669	-0.046816	0.031938	-0.008669	0	0	0	-0.13021	0.025638	0.040782	-0.12448	0.020709	0.15981	-0.14485	-0.086926	0.042016
16	0.14134	-0.094184	-0.015417	0.16082	-0.13907	-0.25523	0.18384	-0.14559	-0.24705	0.21434	-0.046816	-0.15316	-0.008669	-0.046816	0.031938	-0.008669	0	0	0	-0.13019	0.025619	0.04079	-0.12446	0.02069	0.15982	-0.14484	-0.086944	0.042019
17	0.15077	-0.094147	-0.015436	0.16083	-0.13904	-0.25523	0.18386	-0.14557	-0.24705	0.21435	-0.046816	-0.15316	-0.008669	-0.046816	0.031938	-0.008669	0	0	0	-0.13017	0.025601	0.040797	-0.12444	0.020671	0.15982	-0.14483	-0.086961	0.042022
18	0.16019	-0.09411	-0.015454	0.16085	-0.13902	-0.25523	0.18387	-0.14555	-0.24705	0.21437	-0.046816	-0.15316	-0.008669	-0.046816	0.031938	-0.008669	0	0	0	-0.13015	0.025583	0.040802	-0.12442	0.020652	0.15983	-0.14482	-0.086979	0.042023
19	0.16961	-0.094074	-0.015471	0.16086	-0.139	-0.25523	0.18389	-0.14552	-0.24705	0.21438	-0.046816	-0.15316	-0.008669	-0.046816	0.031938	-0.008669	0	0	0	-0.13013	0.025566	0.040807	-0.1244	0.020633	0.15983	-0.14481	-0.086996	0.042023
20	0.17903	-0.094039	-0.015487	0.16087	-0.13898	-0.25523	0.18391	-0.1455	-0.24705	0.2144	-0.046816	-0.15316	-0.008669	-0.046816	0.031938	-0.008669	0	0	0	-0.13012	0.025548	0.04081	-0.12438	0.020615	0.15983	-0.1448	-0.087013	0.042023
21	0.18846	-0.094005	-0.015502	0.16088	-0.13896	-0.25523	0.18393	-0.14548	-0.24705	0.21442	-0.046816	-0.15316	-0.008669	-0.046816	0.031938	-0.008669	0	0	0	-0.1301	0.025531	0.040813	-0.12437	0.020597	0.15984	-0.14479	-0.087029	0.042021
22	0.19788	-0.093971	-0.015516	0.16088	-0.13893	-0.25523	0.18395	-0.14546	-0.24705	0.21444	-0.046816	-0.15316	-0.008669	-0.046816	0.031938	-0.008669	0	0	0	-0.13008	0.025514	0.040814	-0.12435	0.02058	0.15984	-0.14478	-0.087045	0.042018
23	0.2073	-0.093939	-0.01553	0.16089	-0.13891	-0.25523	0.18397	-0.14544	-0.24704	0.21446	-0.046816	-0.15316	-0.008669	-0.046816	0.031938	-0.008669	0	0	0	-0.13006	0.025498	0.040815	-0.12434	0.020562	0.15984	-0.14477	-0.087061	0.042014
24	0.21673	-0.093907	-0.015543	0.16089	-0.13889	-0.25523	0.18399	-0.14542	-0.24704	0.21449	-0.046816	-0.15316	-0.008669	-0.046816	0.031938	-0.008669	0	0	0	-0.13005	0.025482	0.040815	-0.12432	0.020546	0.15984	-0.14476	-0.087077	0.04201
25	0.22615	-0.093877	-0.015555	0.1609	-0.13887	-0.25523	0.18402	-0.1454	-0.24704	0.21451	-0.046816	-0.15316	-0.008669	-0.046816	0.031938	-0.008669	0	0	0	-0.13003	0.025466	0.040813	-0.12431	0.020529	0.15983	-0.14475	-0.087093	0.042004
26	0.23557	-0.093848	-0.015566	0.1609	-0.13884	-0.25523	0.18405	-0.14538	-0.24703	0.21453	-0.046816	-0.15316	-0.008669	-0.046816	0.031938	-0.008669	0	0	0	-0.13001	0.02545	0.040811	-0.1243	0.020513	0.15983	-0.14474	-0.087108	0.041997
27	0.24499	-0.093819	-0.015577	0.1609	-0.13882	-0.25523	0.18407	-0.14536	-0.24703	0.21456	-0.046816	-0.15316	-0.008669	-0.046816	0.031938	-0.008669	0	0	0	-0.13	0.025435	0.040808	-0.12428	0.020496	0.15983	-0.14473	-0.087123	0.04199
28	0.25442	-0.093792	-0.015586	0.1609	-0.1388	-0.25523	0.1841	-0.14534	-0.24703	0.21458	-0.046816	-0.15316	-0.008669	-0.046816	0.031938	-0.008669	0	0	0	-0.12998	0.02542	0.040804	-0.12427	0.020481	0.15982	-0.14472	-0.087137	0.041982
29	0.26384	-0.093766	-0.015596	0.1609	-0.13877	-0.25523	0.18413	-0.14532	-0.24702	0.21461	-0.046816	-0.15316	-0.008669	-0.046816	0.031938	-0.008669	0	0	0	-0.12996	0.025405	0.040799	-0.12427	0.020465	0.15982	-0.14471	-0.087152	0.041973
30	0.27326	-0.093742	-0.015604	0.1609	-0.13875	-0.25523	0.18416	-0.1453	-0.24702	0.21464	-0.046816	-0.15316	-0.008669	-0.046816	0.031938	-0.008669	0	0	0	-0.12995	0.02539	0.040793	-0.12426	0.02045	0.15981	-0.14471	-0.087166	0.041963
31	0.28269	-0.093719	-0.015612	0.16089	-0.13873	-0.25522	0.18419	-0.14528	-0.24701	0.21467	-0.046816	-0.15316	-0.008669	-0.046816	0.031938	-0.008669	0	0	0	-0.12993	0.025376	0.040786	-0.12425	0.020435	0.15981	-0.1447	-0.087179	0.041953
32	0.29211	-0.093697	-0.015619	0.16089	-0.1387	-0.25522	0.18422	-0.14527	-0.24701	0.21469	-0.046816	-0.15316	-0.008669	-0.046816	0.031938	-0.008669	0	0	0	-0.12992	0.025362	0.040779	-0.12424	0.02042	0.1598	-0.14469	-0.087193	0.041941
33	0.30153	-0.093676	-0.015626	0.16088	-0.13868	-0.25522	0.18425	-0.14525	-0.247	0.21472	-0.046816	-0.15316	-0.008669	-0.046816	0.031938	-0.008669	0	0	0	-0.1299	0.025348	0.04077	-0.12424	0.020405	0.15979	-0.14468	-0.087206	0.041929
34	0.31095	-0.093657	-0.015632	0.16087	-0.13866	-0.25522	0.18428	-0.14523	-0.247	0.21475	-0.046816	-0.15316	-0.008669	-0.046816	0.031938	-0.008669	0	0	0	-0.12989	0.025335	0.040761	-0.12424	0.02039	0.15978	-0.14467	-0.087219	0.041917
